HIERARCHY
ROOT Hips
{
	OFFSET -3.958830 18.904000 13.208200
	CHANNELS 6 Xposition Yposition Zposition Zrotation Yrotation Xrotation 
	JOINT LHipJoint
	{
		OFFSET 0.000000 0.000000 0.000000
		CHANNELS 3 Zrotation Yrotation Xrotation
		JOINT LeftUpLeg
		{
			OFFSET 1.800000 -1.400000 0.085000
			CHANNELS 3 Zrotation Yrotation Xrotation
			JOINT LeftLeg
			{
				OFFSET 2.215000 -6.000000 0.000000
				CHANNELS 3 Zrotation Yrotation Xrotation
				JOINT LeftFoot
				{
					OFFSET 2.500000 -6.900000 0.000000
					CHANNELS 3 Zrotation Yrotation Xrotation
					JOINT LeftToeBase
					{
						OFFSET 0.200000 -0.500000 1.950000
						CHANNELS 3 Zrotation Yrotation Xrotation
						End Site
						{
							OFFSET 0.000000 0.000000 0.000000
						}
					}
				}
			}
		}
	}
	JOINT RHipJoint
	{
		OFFSET 0.000000 0.000000 0.000000
		CHANNELS 3 Zrotation Yrotation Xrotation
		JOINT RightUpLeg
		{
			OFFSET -1.800000 -1.400000 0.085000
			CHANNELS 3 Zrotation Yrotation Xrotation
			JOINT RightLeg
			{
				OFFSET -2.215000 -6.000000 0.000000
				CHANNELS 3 Zrotation Yrotation Xrotation
				JOINT RightFoot
				{
					OFFSET -2.500000 -6.900000 0.000000
					CHANNELS 3 Zrotation Yrotation Xrotation
					JOINT RightToeBase
					{
						OFFSET -0.200000 -0.500000 1.950000
						CHANNELS 3 Zrotation Yrotation Xrotation
						End Site
						{
							OFFSET 0.000000 0.000000 0.000000
						}
					}
				}
			}
		}
	}
	JOINT LowerBack
	{
		OFFSET 0.000000 0.000000 0.000000
		CHANNELS 3 Zrotation Yrotation Xrotation
		JOINT Spine
		{
			OFFSET -0.087000 1.940000 -0.288900
			CHANNELS 3 Zrotation Yrotation Xrotation
			JOINT Spine1
			{
				OFFSET 0.000000 1.950000 0.060000
				CHANNELS 3 Zrotation Yrotation Xrotation
				JOINT Neck
				{
					OFFSET 0.000000 0.000000 0.000000
					CHANNELS 3 Zrotation Yrotation Xrotation
					JOINT Neck1
					{
						OFFSET 0.000000 1.600000 0.340000
						CHANNELS 3 Zrotation Yrotation Xrotation
						JOINT Head
						{
							OFFSET 0.000000 1.667000 -0.240000
							CHANNELS 3 Zrotation Yrotation Xrotation
							End Site
							{
								OFFSET 0.000000 0.000000 0.000000
							}
						}
					}
				}
				JOINT LeftShoulder
				{
					OFFSET 0.000000 0.000000 0.000000
					CHANNELS 3 Zrotation Yrotation Xrotation
					JOINT LeftArm
					{
						OFFSET 2.700000 1.550000 -0.730000
						CHANNELS 3 Zrotation Yrotation Xrotation
						JOINT LeftForeArm
						{
							OFFSET 5.450000 0.000000 0.000000
							CHANNELS 3 Zrotation Yrotation Xrotation
							JOINT LeftHand
							{
								OFFSET 3.450000 0.000000 0.000000
								CHANNELS 3 Zrotation Yrotation Xrotation
								JOINT LeftHandIndex1
								{
									OFFSET 0.750000 0.000000 0.000000
									CHANNELS 3 Zrotation Yrotation Xrotation
									End Site
									{
										OFFSET 0.000000 0.000000 0.000000
									}
								}
							}
						}
					}
				}
				JOINT RightShoulder
				{
					OFFSET 0.000000 0.000000 0.000000
					CHANNELS 3 Zrotation Yrotation Xrotation
					JOINT RightArm
					{
						OFFSET -2.700000 1.550000 -0.730000
						CHANNELS 3 Zrotation Yrotation Xrotation
						JOINT RightForeArm
						{
							OFFSET -5.450000 0.000000 0.000000
							CHANNELS 3 Zrotation Yrotation Xrotation
							JOINT RightHand
							{
								OFFSET -3.450000 0.000000 0.000000
								CHANNELS 3 Zrotation Yrotation Xrotation
								JOINT RightHandIndex1
								{
									OFFSET -0.750000 0.000000 0.000000
									CHANNELS 3 Zrotation Yrotation Xrotation
									End Site
									{
										OFFSET 0.000000 0.000000 0.000000
									}
								}
							}
						}
					}
				}
			}
		}
	}
}
MOTION
Frames: 8
Frame Time: 0.016667
-1.048030 16.812940 -2.560670 -12.830716 -22.502158 7.106162 -15.839894 10.088302 6.445649 32.181036 1.632465 -39.443862 -33.875838 20.900418 26.835229 0.480152 11.122694 0.759327 0.563490 0.101930 0.251550 18.265078 -8.984032 2.071551 -6.005717 5.354987 -21.271756 13.957430 -6.803260 18.728421 -0.201999 -3.858214 3.208709 0.216720 0.533970 0.310400 -3.024738 -0.787074 -8.566204 3.702064 5.777594 13.698899 3.920754 6.253413 4.737092 1.208915 1.401964 -4.156634 2.076725 2.220981 26.374001 5.719690 0.611910 -7.376850 -15.778414 13.527362 -0.571615 -45.762787 23.774194 -15.923840 -68.440507 -26.439151 9.260311 -3.688509 3.437255 0.536260 0.313090 -0.233310 0.380930 13.593566 -11.842815 1.152611 35.970138 -22.290967 -13.853453 79.135819 31.111962 13.876371 1.592761 -2.152702 -0.298970 0.282570 -0.020940 -0.224450 
-1.038620 16.811310 -2.556870 -12.636888 -22.724963 6.594024 -15.838809 10.233377 6.391724 32.111725 1.316942 -38.472155 -34.019948 21.077006 27.180573 0.476863 11.163193 0.738208 0.613740 0.172280 0.256040 18.250603 -9.002864 2.023848 -5.671545 5.051494 -20.773117 13.093711 -6.598636 18.709413 -0.197914 -3.785566 3.232649 0.271090 0.539020 0.297920 -2.987209 -1.014075 -8.524324 3.766868 5.060344 13.726583 4.315040 5.580155 4.654472 0.765015 0.592890 -3.456399 0.558180 3.160207 26.836966 6.391520 0.517570 -7.864690 -16.937284 13.900124 -0.926200 -45.489545 23.305689 -15.513614 -67.399782 -26.895023 9.414267 -3.688267 3.447498 0.528690 0.303620 -0.234620 0.401680 15.625355 -11.686456 0.452367 33.068028 -21.383916 -12.817327 77.216291 31.101466 13.590027 1.567335 -2.165971 -0.295240 0.310290 -0.034200 -0.211130 
-1.029890 16.819860 -2.556410 -12.333103 -22.604117 6.005868 -15.824480 10.446908 6.275238 31.426963 0.790838 -37.754827 -32.963715 21.218540 28.533066 0.474434 11.184701 0.730287 0.655850 0.226910 0.269160 18.232999 -9.077636 1.982883 -5.108100 4.665411 -20.159902 11.675938 -6.232836 18.570616 -0.186014 -3.659569 3.279240 0.308340 0.542340 0.297390 -2.936763 -1.236619 -8.461242 3.738780 4.362785 13.882337 4.549722 4.908846 4.629768 0.475655 0.104205 -3.025232 -0.446343 3.705138 27.362496 6.630120 0.440010 -7.971050 -18.190235 13.532914 -1.180312 -44.408632 22.509629 -14.903504 -66.247771 -26.042931 8.657479 -3.692255 3.457312 0.516300 0.300820 -0.230290 0.423490 17.475214 -11.062647 0.049652 30.864599 -20.530962 -12.143812 75.424454 31.752642 13.675715 1.553599 -2.186689 -0.284680 0.323540 -0.056210 -0.197390 
-1.010470 16.831440 -2.556600 -11.669478 -21.992370 5.311711 -15.818723 10.739326 6.090049 29.888414 -0.148195 -37.463146 -30.728095 21.190886 30.927277 0.445961 11.166390 0.729524 0.695830 0.273630 0.299220 18.190553 -9.176478 1.942151 -4.862787 4.132993 -19.440086 10.206282 -5.798809 17.933786 -0.169181 -3.503974 3.334387 0.340080 0.530800 0.296390 -2.809754 -1.540860 -8.357612 3.173833 3.818637 13.964002 5.106241 4.313260 4.738749 0.373485 -0.022287 -2.688590 -0.897219 3.853932 27.956551 6.347830 0.498180 -8.068820 -19.253093 12.980615 -1.496330 -44.069346 20.797507 -14.231071 -63.856518 -25.376597 7.921526 -3.707405 3.453128 0.509960 0.297730 -0.222500 0.434760 18.855089 -10.502821 -0.172051 29.203865 -19.696786 -11.610390 73.939500 33.018729 14.253403 1.539388 -2.211831 -0.276640 0.327630 -0.080940 -0.197690 
-0.982440 16.847470 -2.562370 -10.929439 -21.545168 4.865718 -15.808352 11.004113 5.882163 28.103228 -1.098701 -37.279175 -28.193753 20.872651 33.237829 0.376668 11.106319 0.738409 0.717550 0.304660 0.323180 18.154814 -9.282542 1.926522 -4.553677 3.750165 -19.139873 8.600000 -5.325708 17.324790 -0.138887 -3.342606 3.395985 0.374120 0.530600 0.294970 -2.708831 -1.762497 -8.233665 2.675908 3.560616 13.869493 5.417936 3.972024 5.004488 0.511740 0.186900 -2.429168 -0.696710 3.783989 28.190980 5.466580 0.817960 -8.251070 -20.746010 11.830247 -1.811005 -43.650736 18.778624 -13.636299 -60.555645 -25.578846 7.461803 -3.754439 3.422755 0.503950 0.315930 -0.224570 0.434640 20.189215 -9.665059 -0.251803 27.997430 -18.845198 -11.242450 70.820027 33.297706 13.578607 1.514861 -2.204609 -0.286360 0.342190 -0.088760 -0.209470 
-0.952740 16.871640 -2.575730 -10.258867 -21.156419 4.229474 -15.788024 11.297771 5.646414 26.289601 -1.798258 -36.724100 -25.368568 20.285649 35.348311 0.316684 10.966992 0.767745 0.743930 0.331790 0.356140 18.119453 -9.404410 1.947717 -4.101687 3.441347 -18.673096 7.103899 -4.870541 16.664173 -0.136450 -3.185789 3.440522 0.387590 0.505190 0.308460 -2.616843 -1.964035 -8.151085 2.309433 3.484181 14.336522 5.757928 3.895616 5.270952 0.616851 0.287410 -2.459816 -0.693856 3.488592 28.732745 4.914270 0.855940 -8.814120 -21.862738 10.525238 -1.914448 -43.211916 17.155936 -13.186270 -58.649792 -25.141944 6.864444 -3.761913 3.413141 0.517940 0.305660 -0.198050 0.433800 21.153787 -8.452453 -0.074542 26.744120 -18.140958 -11.011635 69.268020 33.778723 13.434701 1.514955 -2.204392 -0.275910 0.335370 -0.103650 -0.217270 
-0.907330 16.895480 -2.590250 -9.905561 -20.810932 3.973750 -15.723571 11.535642 5.401474 24.475703 -2.361142 -36.305340 -22.143055 19.435574 37.475741 0.256934 10.764984 0.822578 0.761820 0.351720 0.386780 18.127867 -9.561901 2.015214 -3.454001 3.271226 -18.518001 5.679365 -4.451166 16.065597 -0.127565 -3.050275 3.489858 0.390710 0.479600 0.322750 -2.668675 -1.979087 -8.088636 3.064412 3.282582 14.796656 5.416113 3.840990 5.410849 0.907131 0.317614 -2.661434 -0.663450 3.224762 28.986037 3.825710 1.129050 -8.932250 -22.858046 9.096892 -1.970201 -42.590281 15.505071 -12.619593 -56.449411 -24.855238 6.381305 -3.774462 3.408710 0.514930 0.308050 -0.179980 0.430950 21.522415 -7.227721 0.247852 25.525011 -17.316723 -10.587605 68.991049 33.732262 13.392580 1.526038 -2.217993 -0.258500 0.314900 -0.122000 -0.225110 
-0.860360 16.916990 -2.606460 -9.384252 -20.195273 3.756459 -15.665666 11.849078 5.079314 22.111199 -2.986067 -35.898142 -17.782578 17.954275 39.845926 0.152461 10.394314 0.925765 0.790350 0.376770 0.429300 18.120918 -9.734794 2.095807 -3.004544 3.129159 -18.546915 4.440355 -4.137967 15.838632 -0.128472 -2.952090 3.513753 0.398610 0.437480 0.333120 -2.677714 -2.061128 -7.983535 3.381841 3.095260 15.028132 5.456352 3.700918 5.719448 1.133878 0.349868 -2.966283 -0.662709 2.859430 29.301237 2.893640 1.246500 -9.227580 -23.118240 7.752779 -1.874869 -42.750955 13.820665 -12.204999 -53.846689 -23.565947 5.311803 -3.773547 3.398162 0.524060 0.294850 -0.154740 0.426370 21.344453 -5.997912 0.548159 23.900054 -16.112193 -9.922238 70.308963 32.636469 13.219925 1.543857 -2.238814 -0.242170 0.289350 -0.146640 -0.239050 
